<?xml version="1.0" encoding="UTF-8" standalone="no"?>
<svg
   version="1.1"
   width="16in"
   height="5.4000001in"
   viewBox="0 0 1151.9908 388.7969"
   id="svg11"
   sodipodi:docname="FARM - ANALYTICA COREL DRAW - horizontal.svg"
   inkscape:export-filename="horizontal.jpg"
   inkscape:export-xdpi="300"
   inkscape:export-ydpi="300"
   inkscape:version="1.4.2 (f4327f4, 2025-05-13)"
   xmlns:inkscape="http://www.inkscape.org/namespaces/inkscape"
   xmlns:sodipodi="http://sodipodi.sourceforge.net/DTD/sodipodi-0.dtd"
   xmlns="http://www.w3.org/2000/svg"
   xmlns:svg="http://www.w3.org/2000/svg">
  <defs
     id="defs11" />
  <sodipodi:namedview
     id="namedview11"
     pagecolor="#ffffff"
     bordercolor="#000000"
     borderopacity="0.25"
     inkscape:showpageshadow="2"
     inkscape:pageopacity="0.0"
     inkscape:pagecheckerboard="0"
     inkscape:deskcolor="#d1d1d1"
     inkscape:document-units="in"
     inkscape:zoom="0.35947823"
     inkscape:cx="1492.4409"
     inkscape:cy="432.5714"
     inkscape:window-width="1920"
     inkscape:window-height="1009"
     inkscape:window-x="1912"
     inkscape:window-y="232"
     inkscape:window-maximized="1"
     inkscape:current-layer="svg11" />
  <g
     id="g11"
     transform="matrix(1.5095519,0,0,1.5095519,-271.94898,-198.67799)">
    <path
       d="m 297.41036,305.6166 v -54.5351 c 0,-2.9929 -2.9222,-4.4249 -5.3027,-5.1549 -21.4915,-4.1774 -37.7606,-23.8166 -37.7606,-47.4185 0,-1.5947 0.0745,-3.1708 0.2194,-4.7259 0.4067,-0.0108 0.8146,-0.0164 1.224,-0.0164 24.8499,0 44.9492,20.4015 46.2571,45.991 0.133,2.601 0.9732,4.5121 1.7039,6.3065 0.7115,-2.0245 1.4349,-4.0915 1.4346,-6.3065 -2e-4,-1.6124 -0.2341,-3.2332 -0.2341,-4.8807 0,-26.6434 20.7323,-48.2423 46.3068,-48.2423 1.6478,0 3.2757,0.0899 4.8787,0.2645 0.1973,1.8082 0.2988,3.6473 0.2988,5.5108 0,24.9701 -18.2098,45.51 -41.5494,47.9911 -2.1005,1.0058 -3.7868,3.0436 -4.2078,5.2169 -0.1417,0.7322 -0.3413,34.6034 -0.4204,51.8406 -4.4285,2.5047 -8.7168,5.2285 -12.8483,8.1589 z"
       style="fill:#589e4d;fill-rule:evenodd"
       id="path1" />
    <path
       d="m 367.2764,226.23106 h 15.3111 v 53.856 c -0.2818,-0.002 -0.5633,-0.005 -0.8456,-0.005 -4.8804,0 -9.7053,0.2378 -14.4655,0.6967 z"
       style="fill:#589e4d;fill-rule:evenodd"
       id="path2"
       sodipodi:nodetypes="cccscc" />
    <path
       d="m 343.5595,247.84656 h 15.3111 v 33.9823 c -5.1974,0.8017 -10.3057,1.8735 -15.3111,3.1981 z"
       style="fill:#589e4d;fill-rule:evenodd"
       id="path3" />
    <path
       d="m 318.9417,266.46006 h 15.3111 v 21.3587 c -5.2401,1.7626 -10.3501,3.8084 -15.3111,6.1197 z"
       style="fill:#589e4d;fill-rule:evenodd"
       id="path4" />
    <path
       d="m 383.0135,328.21846 c -28.2523,2.8789 -53.9617,14.3507 -74.4735,31.7588 -5.5423,-0.0148 -10.9806,-0.4694 -16.283,-1.3303 26.0787,-25.8506 61.6682,-42.1217 101.0542,-43.0934 -3.0968,4.494 -6.5418,8.729 -10.2977,12.6649 z"
       style="fill:#589e4d;fill-rule:evenodd"
       id="path5" />
    <path
       d="m 218.42647,290.61171 c 26.58308,0 51.53728,6.9704 73.13928,19.1795 -3.5297,2.5543 -6.9438,5.2583 -10.2314,8.1046 -18.8351,-9.7651 -40.2265,-15.2839 -62.90788,-15.2839 -1.79259,0 -3.57729,0.0346 -5.35289,0.1032 -1.7671,-3.8035 -3.3072,-7.7343 -4.60399,-11.7737 3.29069,-0.218 6.61089,-0.3297 9.95688,-0.3297 z"
       style="fill:#589e4d;fill-rule:evenodd"
       id="path6" />
    <path
       d="m 222.72402,313.15626 c 17.98098,1.2294 35.08488,5.6523 50.74918,12.7055 -2.8902,3.0438 -5.6526,6.2098 -8.2797,9.4895 -10.2096,-4.2701 -21.0467,-7.3392 -32.33459,-9.0298 -3.7193,-4.0997 -7.11089,-8.5022 -10.13489,-13.1652 z"
       style="fill:#589e4d;fill-rule:evenodd"
       id="path7" />
    <path
       d="m 386.3369,291.00296 c 6.4292,0 12.7632,0.4065 18.9776,1.1982 -1.4249,3.9555 -3.0866,7.7975 -4.9668,11.5104 -4.6063,-0.4689 -9.2807,-0.7084 -14.0108,-0.7084 -37.7955,0 -72.0125,15.3193 -96.7797,40.0864 -3.8945,3.8945 -7.5554,8.0229 -10.9595,12.3622 -4.0193,-1.2379 -7.9328,-2.7156 -11.7244,-4.4175 4.333,-5.8179 9.0805,-11.3094 14.1998,-16.4288 26.9397,-26.9396 64.1563,-43.6025 105.2638,-43.6025 z"
       style="fill:#589e4d;fill-rule:evenodd"
       id="path8" />
    <path
       d="m 308.8187,142.89836 c 31.6281,0 60.2637,12.8208 80.9915,33.5489 20.728,20.7278 33.5488,49.3628 33.5488,80.9915 0,31.6287 -12.8208,60.2637 -33.5488,80.9915 -20.7278,20.7281 -49.3634,33.5489 -80.9915,33.5489 -31.6287,0 -60.2638,-12.8208 -80.99148,-33.5489 -20.72808,-20.7278 -33.54886,-49.3628 -33.54886,-80.9915 0,-31.6287 12.82078,-60.2637 33.54886,-80.9915 20.72768,-20.7281 49.36278,-33.5489 80.99148,-33.5489 z m 72.5074,42.033 c -18.5553,-18.5556 -44.191,-30.0328 -72.5074,-30.0328 -28.3164,0 -53.9521,11.4772 -72.50739,30.0328 -18.55558,18.5553 -30.03276,44.191 -30.03276,72.5074 0,28.3164 11.47718,53.9521 30.03276,72.5074 18.55529,18.5556 44.19099,30.0328 72.50739,30.0328 28.3164,0 53.9521,-11.4772 72.5074,-30.0328 18.5556,-18.5553 30.0327,-44.191 30.0327,-72.5074 0,-28.3164 -11.4771,-53.9521 -30.0327,-72.5074 z"
       style="fill:#2e5159;fill-rule:evenodd"
       id="path9"
       sodipodi:nodetypes="scscscscscscscscsc" />
  </g>
  <g
     id="Layer1002"
     transform="matrix(1.9663755,0,0,1.9663755,-294.28034,-361.53874)">
    <path
       d="m 412.66881,261.43299 h -39.3638 v 40.7403 h -20.5104 v -99.5411 h 64.7974 v 16.6601 h -44.287 v 25.6203 h 39.3638 z m 61.4577,20.3 h -35.9572 l -6.8366,20.4403 h -21.7936 l 37.0304,-99.5411 h 19.0168 l 37.2639,99.5411 h -21.8171 z m -30.4271,-16.6601 h 24.897 l -12.5067,-37.2872 z m 106.8183,0.6999 h -16.3336 v 36.4005 h -20.5103 v -99.5411 h 36.9839 c 11.7601,0 20.8369,2.6133 27.2069,7.8633 6.3933,5.2501 9.5667,12.6468 9.5667,22.237 0,6.7901 -1.4701,12.4602 -4.4099,16.9869 -2.9401,4.5501 -7.3735,8.1669 -13.3469,10.8501 l 21.537,40.6471 v 0.9567 h -22.0271 z m -16.3336,-16.6601 h 16.5436 c 5.1565,0 9.1465,-1.3067 11.9701,-3.92 2.8233,-2.6135 4.2466,-6.2303 4.2466,-10.8269 0,-4.6899 -1.3532,-8.3534 -4.0133,-11.0367 -2.66,-2.6836 -6.7436,-4.0368 -12.2734,-4.0368 h -16.4736 z m 97.2046,-46.4805 25.5736,72.1942 25.4336,-72.1942 h 26.9271 v 99.5411 h -20.5804 v -27.2069 l 2.0534,-46.9706 -26.8568,74.1775 h -14.0936 l -26.7871,-74.1075 2.0534,46.9006 v 27.2069 h -20.5103 v -99.5411 z"
       style="fill:#2e5159;fill-rule:evenodd"
       id="path10" />
    <path
       d="m 366.25751,361.63399 h -15.9852 l -3.0393,9.0867 h -9.6885 l 16.4622,-44.2516 h 8.454 l 16.566,44.2516 h -9.699 z m -13.5267,-7.4064 h 11.0682 l -5.5599,-16.5764 z m 73.3621,16.4931 h -9.118 l -17.738,-29.1172 v 29.1172 h -9.118 v -44.2516 h 9.118 l 17.7692,29.1795 v -29.1795 h 9.0868 z m 40.4589,-9.0867 h -15.9852 l -3.0393,9.0867 h -9.6885 l 16.4622,-44.2516 h 8.454 l 16.566,44.2516 h -9.699 z m -13.5267,-7.4064 h 11.0682 l -5.5599,-16.5764 z m 46.5061,9.1489 h 19.3563 v 7.3442 h -28.4743 v -44.2516 h 9.118 z m 38.3323,-16.9702 9.201,-19.9372 h 9.9686 l -14.5225,28.2044 v 16.0472 h -9.2735 v -16.0472 l -14.5222,-28.2044 h 9.9995 z m 64.0057,-12.5309 h -13.5578 v 36.8453 h -9.1179 v -36.8453 h -13.371 v -7.4063 h 36.0467 z m 21.8492,36.8453 h -9.1074 v -44.2516 h 9.1074 z m 50.1472,-14.7194 c -0.3425,4.7613 -2.0954,8.5059 -5.2696,11.2444 -3.1638,2.7281 -7.344,4.0975 -12.5306,4.0975 -5.6741,0 -10.1347,-1.9088 -13.3917,-5.7364 -3.2468,-3.8172 -4.8753,-9.0661 -4.8753,-15.736 v -2.7074 c 0,-4.2531 0.7466,-8.0081 2.251,-11.2547 1.4935,-3.2366 3.6408,-5.7259 6.4207,-7.4585 2.7904,-1.7322 6.0268,-2.6036 9.7093,-2.6036 5.1139,0 9.2216,1.3694 12.344,4.0975 3.1223,2.7385 4.9272,6.5766 5.4045,11.5245 h -9.1182 c -0.2177,-2.863 -1.0165,-4.9377 -2.3856,-6.2237 -1.359,-1.2864 -3.4438,-1.9296 -6.2447,-1.9296 -3.0394,0 -5.311,1.0891 -6.8151,3.2675 -1.5146,2.1784 -2.2822,5.5602 -2.3236,10.1449 v 3.3401 c 0,4.782 0.7158,8.2777 2.168,10.4873 1.4522,2.2094 3.7343,3.3194 6.8567,3.3194 2.8111,0 4.9167,-0.6432 6.3068,-1.9191 1.3796,-1.2863 2.1784,-3.2674 2.3856,-5.9541 z m 37.938,5.6327 h -15.9851 l -3.0393,9.0867 h -9.6886 l 16.4622,-44.2516 h 8.4541 l 16.5659,44.2516 h -9.699 z m -13.5266,-7.4064 h 11.0681 l -5.5599,-16.5764 z"
       style="fill:#2e5159;fill-rule:evenodd"
       id="path11" />
  </g>
</svg>
